<svg width="473" height="335" viewBox="0 0 473 335" fill="none" xmlns="http://www.w3.org/2000/svg">
<rect width="473" height="335" rx="5.60694" fill="#343741"/>
<rect y="281" width="473" height="54" fill="#F95C46"/>
<g filter="url(#filter0_d_364_278)">
<path d="M192.862 302.972L194.818 292.617H197.426L199.357 302.972H197.247L196.902 300.786H195.381L195.023 302.972H192.862ZM195.585 299.418H196.685L196.135 295.378L195.585 299.418ZM200.402 302.972V292.617H203.253C203.952 292.617 204.557 292.693 205.068 292.847C205.58 293 205.976 293.277 206.257 293.678C206.547 294.07 206.692 294.628 206.692 295.353C206.692 295.779 206.658 296.158 206.59 296.49C206.521 296.823 206.394 297.112 206.206 297.36C206.027 297.598 205.767 297.798 205.426 297.96L206.845 302.972H204.48L203.342 298.331H202.69V302.972H200.402ZM202.69 297.014H203.33C203.654 297.014 203.905 296.959 204.084 296.848C204.263 296.729 204.386 296.563 204.455 296.35C204.531 296.128 204.57 295.864 204.57 295.557C204.57 295.114 204.489 294.769 204.327 294.522C204.165 294.274 203.867 294.151 203.432 294.151H202.69V297.014ZM208.029 302.972L208.208 292.617H210.663L211.8 298.638L213.028 292.617H215.393L215.572 302.972H213.948L213.756 296.081L212.555 302.972H211.11L209.832 296.03L209.678 302.972H208.029ZM216.57 302.972L218.526 292.617H221.134L223.064 302.972H220.955L220.61 300.786H219.088L218.73 302.972H216.57ZM219.293 299.418H220.392L219.843 295.378L219.293 299.418ZM226.758 303.125C226.111 303.125 225.569 303.01 225.135 302.78C224.7 302.55 224.372 302.196 224.15 301.719C223.929 301.233 223.805 300.607 223.78 299.84L225.736 299.546C225.744 299.989 225.782 300.347 225.851 300.619C225.927 300.892 226.03 301.088 226.157 301.208C226.294 301.327 226.456 301.386 226.643 301.386C226.882 301.386 227.035 301.306 227.103 301.144C227.18 300.982 227.219 300.811 227.219 300.632C227.219 300.206 227.116 299.848 226.912 299.558C226.707 299.26 226.43 298.962 226.081 298.664L225.186 297.884C224.794 297.551 224.461 297.176 224.189 296.759C223.925 296.333 223.792 295.808 223.792 295.186C223.792 294.309 224.052 293.639 224.572 293.179C225.092 292.711 225.8 292.476 226.694 292.476C227.248 292.476 227.692 292.57 228.024 292.757C228.365 292.945 228.62 293.192 228.791 293.499C228.97 293.797 229.089 294.117 229.149 294.458C229.217 294.79 229.255 295.11 229.264 295.416L227.295 295.659C227.287 295.353 227.265 295.088 227.231 294.867C227.206 294.637 227.146 294.462 227.052 294.343C226.959 294.215 226.814 294.151 226.618 294.151C226.405 294.151 226.247 294.24 226.145 294.419C226.051 294.598 226.004 294.777 226.004 294.956C226.004 295.34 226.094 295.655 226.273 295.902C226.46 296.141 226.703 296.392 227.001 296.656L227.858 297.411C228.309 297.794 228.689 298.229 228.995 298.715C229.311 299.2 229.468 299.801 229.468 300.517C229.468 301.003 229.358 301.446 229.136 301.847C228.915 302.239 228.599 302.55 228.19 302.78C227.79 303.01 227.312 303.125 226.758 303.125ZM230.615 302.972V292.617H232.903V296.81H234.501V292.617H236.802V302.972H234.501V298.446H232.903V302.972H230.615ZM241.151 302.972L243.107 292.617H245.715L247.646 302.972H245.536L245.191 300.786H243.67L243.312 302.972H241.151ZM243.874 299.418H244.974L244.424 295.378L243.874 299.418ZM249.075 302.972V294.317H247.515V292.617H252.923V294.317H251.376V302.972H249.075ZM252.874 302.972L254.83 292.617H257.438L259.368 302.972H257.259L256.914 300.786H255.392L255.035 302.972H252.874ZM255.597 299.418H256.696L256.147 295.378L255.597 299.418Z" fill="white"/>
</g>
<g filter="url(#filter1_d_364_278)">
<path d="M219.704 321.033C218.92 321.033 218.298 320.893 217.838 320.611C217.386 320.322 217.067 319.921 216.879 319.41C216.692 318.89 216.598 318.281 216.598 317.582V313.849C216.598 313.133 216.692 312.519 216.879 312.008C217.067 311.488 217.386 311.087 217.838 310.806C218.298 310.525 218.92 310.384 219.704 310.384C220.471 310.384 221.068 310.512 221.494 310.768C221.929 311.015 222.236 311.364 222.415 311.816C222.594 312.268 222.683 312.788 222.683 313.376V314.271H220.446V313.235C220.446 313.031 220.433 312.835 220.408 312.647C220.39 312.46 220.331 312.306 220.229 312.187C220.126 312.059 219.952 311.995 219.704 311.995C219.466 311.995 219.287 312.059 219.168 312.187C219.057 312.315 218.984 312.477 218.95 312.673C218.925 312.86 218.912 313.06 218.912 313.274V318.144C218.912 318.374 218.929 318.587 218.963 318.783C219.006 318.971 219.082 319.124 219.193 319.244C219.312 319.354 219.483 319.41 219.704 319.41C219.943 319.41 220.114 319.35 220.216 319.231C220.318 319.103 220.382 318.941 220.408 318.745C220.433 318.549 220.446 318.349 220.446 318.144V317.058H222.683V317.952C222.683 318.54 222.594 319.069 222.415 319.538C222.244 319.998 221.942 320.364 221.507 320.637C221.081 320.901 220.48 321.033 219.704 321.033ZM223.942 320.88V310.525H228.595V312.085H226.23V314.654H228.033V316.239H226.23V319.333H228.621V320.88H223.942ZM232.626 321.033C231.85 321.033 231.236 320.897 230.785 320.624C230.333 320.351 230.009 319.959 229.813 319.448C229.617 318.937 229.519 318.327 229.519 317.62V313.772C229.519 313.056 229.617 312.447 229.813 311.944C230.009 311.441 230.333 311.058 230.785 310.793C231.236 310.521 231.85 310.384 232.626 310.384C233.41 310.384 234.028 310.521 234.479 310.793C234.939 311.058 235.268 311.441 235.464 311.944C235.66 312.447 235.758 313.056 235.758 313.772V317.62C235.758 318.327 235.66 318.937 235.464 319.448C235.268 319.959 234.939 320.351 234.479 320.624C234.028 320.897 233.41 321.033 232.626 321.033ZM232.626 319.41C232.864 319.41 233.039 319.35 233.15 319.231C233.261 319.111 233.333 318.958 233.367 318.771C233.401 318.583 233.418 318.391 233.418 318.195V313.21C233.418 313.005 233.401 312.813 233.367 312.634C233.333 312.447 233.261 312.293 233.15 312.174C233.039 312.055 232.864 311.995 232.626 311.995C232.404 311.995 232.238 312.055 232.127 312.174C232.016 312.293 231.944 312.447 231.91 312.634C231.876 312.813 231.859 313.005 231.859 313.21V318.195C231.859 318.391 231.871 318.583 231.897 318.771C231.931 318.958 231.999 319.111 232.101 319.231C232.212 319.35 232.387 319.41 232.626 319.41Z" fill="white"/>
</g>
<defs>
<filter id="filter0_d_364_278" x="192.302" y="291.915" width="67.6271" height="11.7703" filterUnits="userSpaceOnUse" color-interpolation-filters="sRGB">
<feFlood flood-opacity="0" result="BackgroundImageFix"/>
<feColorMatrix in="SourceAlpha" type="matrix" values="0 0 0 0 0 0 0 0 0 0 0 0 0 0 0 0 0 0 127 0" result="hardAlpha"/>
<feOffset/>
<feGaussianBlur stdDeviation="0.280347"/>
<feComposite in2="hardAlpha" operator="out"/>
<feColorMatrix type="matrix" values="0 0 0 0 1 0 0 0 0 1 0 0 0 0 1 0 0 0 1 0"/>
<feBlend mode="normal" in2="BackgroundImageFix" result="effect1_dropShadow_364_278"/>
<feBlend mode="normal" in="SourceGraphic" in2="effect1_dropShadow_364_278" result="shape"/>
</filter>
<filter id="filter1_d_364_278" x="216.037" y="309.824" width="20.2811" height="11.7703" filterUnits="userSpaceOnUse" color-interpolation-filters="sRGB">
<feFlood flood-opacity="0" result="BackgroundImageFix"/>
<feColorMatrix in="SourceAlpha" type="matrix" values="0 0 0 0 0 0 0 0 0 0 0 0 0 0 0 0 0 0 127 0" result="hardAlpha"/>
<feOffset/>
<feGaussianBlur stdDeviation="0.280347"/>
<feComposite in2="hardAlpha" operator="out"/>
<feColorMatrix type="matrix" values="0 0 0 0 1 0 0 0 0 1 0 0 0 0 1 0 0 0 1 0"/>
<feBlend mode="normal" in2="BackgroundImageFix" result="effect1_dropShadow_364_278"/>
<feBlend mode="normal" in="SourceGraphic" in2="effect1_dropShadow_364_278" result="shape"/>
</filter>
</defs>
</svg>
